<?xml version="1.0" encoding="utf-8"?>
<!-- Generator: Adobe Illustrator 16.0.0, SVG Export Plug-In . SVG Version: 6.00 Build 0)  -->
<!DOCTYPE svg PUBLIC "-//W3C//DTD SVG 1.1//EN" "http://www.w3.org/Graphics/SVG/1.1/DTD/svg11.dtd">
<svg version="1.1" xmlns="http://www.w3.org/2000/svg" xmlns:xlink="http://www.w3.org/1999/xlink" x="0px" y="0px" width="40px"
	 height="40px" viewBox="0 0 40 40" enable-background="new 0 0 40 40" xml:space="preserve">
<g id="Layer_1" display="none">
	<g display="inline">
		<path fill="#E73137" d="M19.787,3.948C10.512,4.453,3.165,11.315,3.165,19.704c0,3.718,1.443,7.137,3.857,9.835h13.374v0.001
			c0.015,0,0.031,0,0.047-0.001h0c0.007,0,0.014,0,0.021,0c0.005,0,0.01,0,0.016,0c0.522-0.012,6.206-0.26,6.206-5.673
			c0-5.437-5.597-5.685-6.192-5.697c-0.003,0-0.003,0.001-0.006,0.001c-0.015,0-0.03,0-0.045,0l0,0l0,0
			c-1.556-0.024-2.809-1.292-2.809-2.854c0-1.561,1.253-2.829,2.809-2.854l0,0l0.001,0c0.014,0,0.03,0,0.046,0
			c0.047,0,0.095,0.002,0.145,0.003c1.569,0.046,12.319,0.745,12.319,11.414c0,5.28-2.707,8.109-5.598,9.624l0.002,0.017
			c6.539-2.323,11.245-7.16,11.245-13.815c-0.001-3.84-1.541-7.361-4.101-10.098H20.745c-0.022,0.001-0.045,0.002-0.069,0.002
			h-0.001c-0.008,0-0.015,0-0.021,0c-0.007,0-0.011,0-0.017,0c-0.524,0.012-6.205,0.26-6.204,5.674c0,5.437,5.594,5.684,6.192,5.694
			c0.001,0,0.003,0.001,0.005,0.001c0.016,0,0.029,0,0.045,0l0,0l0,0c1.555,0.024,2.81,1.292,2.81,2.853s-1.255,2.829-2.81,2.854
			l0,0h0c-0.016,0.001-0.03,0-0.045,0c-0.05,0-0.098-0.001-0.146-0.003c-1.569-0.046-12.319-0.745-12.319-11.414
			c0-9.517,8.776-10.976,11.633-11.229L19.787,3.948z"/>
		<path fill="#E73137" d="M20.545,33.449c-0.042-0.797-0.092-1.764-0.092-2.467h-0.016c-0.205,0.662-0.434,1.382-0.722,2.17
			l-1.008,2.773h-0.56l-0.934-2.721c-0.27-0.816-0.491-1.545-0.652-2.223h-0.017c-0.018,0.713-0.06,1.662-0.11,2.526l-0.153,2.451
			h-0.704l0.398-5.714h0.941l0.976,2.764c0.238,0.703,0.423,1.33,0.576,1.924h0.018c0.153-0.577,0.356-1.203,0.61-1.924l1.019-2.764
			h0.941l0.356,5.714h-0.73L20.545,33.449z"/>
		<path fill="#E73137" d="M3.99,35.452c-1.161,0-1.823-1.112-1.823-2.315c0-1.238,0.61-2.383,1.84-2.383
			c1.229,0,1.822,1.187,1.822,2.323c0,1.297-0.661,2.375-1.831,2.375H3.99z M3.973,36.053c1.45,0,2.645-1.052,2.645-3.01
			c0-1.696-1.009-2.892-2.577-2.892c-1.526,0-2.646,1.188-2.646,3.001c0,1.73,1.051,2.9,2.569,2.9H3.973z"/>
		<path fill="#E73137" d="M7.061,35.96v-5.714h0.815l1.822,2.891c0.416,0.67,0.754,1.262,1.018,1.856l0.025-0.01
			c-0.067-0.763-0.085-1.458-0.085-2.339v-2.398h0.696v5.714h-0.747l-1.814-2.9c-0.398-0.636-0.781-1.288-1.06-1.907L7.706,31.16
			c0.042,0.721,0.051,1.408,0.051,2.357v2.442H7.061z"/>
		<path fill="#E73137" d="M14.873,33.28H12.66v2.061h2.475v0.619h-3.221v-5.714h3.094v0.617H12.66v1.807h2.212V33.28z"/>
		<g>
			<path fill="#E73137" d="M22.073,35.954c-0.2,0-0.358-0.158-0.358-0.363c0-0.211,0.158-0.368,0.358-0.368
				c0.194,0,0.354,0.157,0.354,0.368C22.428,35.796,22.268,35.954,22.073,35.954z"/>
			<path fill="#E73137" d="M27.193,34.783h-1.719c0.012,0.395,0.338,0.67,0.749,0.67c0.253,0,0.464-0.062,0.692-0.186l0.164,0.435
				c-0.299,0.208-0.652,0.293-0.969,0.293c-0.678,0-1.071-0.359-1.234-0.831c-0.253,0.532-0.814,0.831-1.449,0.831
				c-0.362,0-0.661-0.068-0.881-0.191v-3.857h0.678v1.344c0.158-0.046,0.321-0.081,0.518-0.081c0.497,0,0.969,0.244,1.172,0.735
				c0.184-0.435,0.561-0.735,1.084-0.735c0.723,0,1.195,0.547,1.195,1.377C27.193,34.631,27.193,34.699,27.193,34.783z
				 M23.602,33.779c-0.168,0-0.281,0.045-0.377,0.084v1.528c0.102,0.034,0.197,0.052,0.332,0.052c0.451,0,0.783-0.384,0.783-0.879
				C24.34,34.146,24.064,33.779,23.602,33.779z M25.98,33.717c-0.326,0-0.523,0.293-0.523,0.588h1.037
				C26.483,34.017,26.326,33.717,25.98,33.717z"/>
		</g>
	</g>
	<path display="inline" fill="none" d="M0,0"/>
	<path display="inline" fill="none" d="M40,0"/>
	<path display="inline" fill="none" d="M40,40.001"/>
	<path display="inline" fill="none" d="M0,40.001"/>
</g>
<g id="Layer_3" display="none">
	<rect display="inline" fill="#8CC63F" width="40" height="39.999"/>
</g>
<g id="onem" display="none">
	<g display="inline">
		<path d="M18.822,3.652C8.877,4.194,1,11.552,1,20.548c0,3.987,1.547,7.652,4.136,10.546h14.34v0.001c0.016,0,0.033,0,0.051-0.001
			h0c0.008,0,0.016,0,0.023,0c0.006,0,0.011,0,0.017,0c0.56-0.014,6.654-0.279,6.654-6.083c0-5.829-6.001-6.096-6.639-6.109
			c-0.003,0-0.003,0.001-0.006,0.001c-0.016,0-0.032,0-0.049,0l0,0l0,0c-1.668-0.027-3.011-1.386-3.011-3.06
			c0-1.673,1.343-3.033,3.011-3.061l0,0l0.001,0c0.016,0,0.033,0,0.05,0c0.05,0,0.102,0.002,0.155,0.003
			c1.683,0.05,13.208,0.799,13.208,12.238c0,5.662-2.902,8.696-6.001,10.319l0.002,0.019C33.954,32.87,39,27.684,39,20.548
			c-0.001-4.117-1.651-7.894-4.397-10.829H19.85c-0.024,0.001-0.048,0.002-0.074,0.002h-0.001c-0.008,0-0.016,0-0.023,0
			s-0.012,0-0.018,0c-0.562,0.013-6.652,0.278-6.652,6.083c0,5.83,5.999,6.095,6.639,6.105c0.001,0,0.004,0.002,0.006,0.002
			c0.017,0,0.031,0,0.048,0l0,0l0,0c1.667,0.025,3.013,1.385,3.013,3.06s-1.347,3.034-3.013,3.059l0,0h0
			c-0.017,0.001-0.032,0-0.048,0c-0.054,0-0.105-0.001-0.158-0.003C17.886,27.98,6.36,27.23,6.36,15.791
			c0-10.205,9.41-11.769,12.473-12.04L18.822,3.652z"/>
	</g>
</g>
<g id="ehealth" display="none">
	<g display="inline">
		<path d="M28.916,19.995c-0.344,0-0.577,0.261-0.59,0.595h1.153C29.462,20.277,29.25,19.995,28.916,19.995z"/>
		<path d="M30.725,21.293c0,0.221,0.281,0.286,0.455,0.286c0.217,0,0.556-0.112,0.556-0.426v-0.368
			c-0.152,0.099-0.392,0.094-0.607,0.134C30.915,20.954,30.725,21.032,30.725,21.293z"/>
		<g>
			<path d="M15.13,19.199c-0.441,0-0.76,0.269-0.854,0.638c-0.015,0.06-0.025,0.121-0.027,0.185h1.724
				c-0.004-0.063-0.015-0.125-0.031-0.185C15.85,19.484,15.556,19.199,15.13,19.199z"/>
			<path d="M31.002,14.605c-4.542,0-7.819,2.308-8.096,5.231h-3.217c-0.205-2.363-2.187-4.218-4.604-4.218s-4.4,1.855-4.604,4.218
				H7.604c-0.203-1.607-1.599-2.856-3.288-2.856C2.488,16.98,1,18.442,1,20.24c0,1.799,1.488,3.261,3.317,3.261
				c1.689,0,3.084-1.249,3.288-2.856h2.876c0.205,2.363,2.188,4.219,4.604,4.219s4.399-1.855,4.604-4.219h3.217
				c0.276,2.923,3.554,5.231,8.096,5.231c4.75,0,7.998-2.523,7.998-5.636C39,17.128,35.752,14.605,31.002,14.605z M4.317,22.795
				c-1.439,0-2.61-1.146-2.61-2.555c0-1.409,1.171-2.554,2.61-2.554c1.439,0,2.61,1.146,2.61,2.554
				C6.927,21.649,5.756,22.795,4.317,22.795z M16.711,20.473h-2.462c0,0.058,0.004,0.116,0.012,0.172
				c0.061,0.411,0.347,0.746,0.889,0.746c0.427,0,0.687-0.174,0.816-0.517h0.701c-0.162,0.679-0.784,1.056-1.517,1.056
				c-0.918,0-1.484-0.518-1.613-1.285c-0.019-0.111-0.027-0.227-0.027-0.346c0-0.16,0.021-0.314,0.06-0.462
				c0.177-0.669,0.742-1.178,1.56-1.178c0.809,0,1.378,0.518,1.544,1.178C16.726,20.04,16.741,20.254,16.711,20.473z M27.358,21.908
				h-0.542v-1.397h-1.41v1.397h-0.542v-3.098h0.542v1.233h1.41v-1.233h0.542V21.908z M29.974,20.915h-1.647
				c0,0.351,0.19,0.664,0.602,0.664c0.287,0,0.461-0.126,0.548-0.373h0.468c-0.108,0.49-0.524,0.763-1.016,0.763
				c-0.702,0-1.097-0.489-1.097-1.18c0-0.637,0.417-1.185,1.085-1.185C29.623,19.604,30.057,20.243,29.974,20.915z M32.468,21.913
				c-0.073,0.025-0.23,0.056-0.312,0.056c-0.199,0-0.342-0.069-0.381-0.272c-0.195,0.19-0.512,0.272-0.776,0.272
				c-0.403,0-0.769-0.217-0.769-0.654c0-0.56,0.446-0.651,0.863-0.698c0.355-0.066,0.673-0.026,0.673-0.317
				c0-0.256-0.265-0.304-0.465-0.304c-0.277,0-0.473,0.114-0.494,0.356h-0.494c0.034-0.578,0.524-0.748,1.02-0.748
				c0.438,0,0.897,0.179,0.897,0.652v1.154c0,0.121,0.026,0.169,0.116,0.169c0.03,0,0.069,0,0.122-0.01V21.913z M33.271,21.908
				h-0.495v-3.098h0.495V21.908z M34.897,20.035H34.45v1.197c0,0.204,0.018,0.309,0.238,0.309c0.069,0,0.139,0,0.209-0.018v0.382
				c-0.109,0.009-0.213,0.025-0.322,0.025c-0.516,0-0.61-0.199-0.619-0.572v-1.323h-0.373v-0.37h0.373v-0.672h0.494v0.672h0.447
				V20.035z M37.222,21.908h-0.494v-1.409c-0.01-0.352-0.147-0.504-0.438-0.504c-0.329,0-0.542,0.261-0.542,0.59v1.323h-0.494
				v-3.098h0.494v1.149h0.008c0.122-0.204,0.378-0.356,0.673-0.356c0.486,0,0.794,0.261,0.794,0.765V21.908z"/>
		</g>
	</g>
</g>
<g id="ehealth_V2" display="none">
	<g display="inline">
		<g>
			<path d="M31.002,14.605c-4.542,0-7.819,2.308-8.096,5.231h-3.217c-0.205-2.363-2.187-4.218-4.604-4.218s-4.4,1.855-4.604,4.218
				H7.604c-0.203-1.607-1.599-2.856-3.288-2.856C2.488,16.98,1,18.442,1,20.24c0,1.799,1.488,3.261,3.317,3.261
				c1.689,0,3.084-1.249,3.288-2.856h2.876c0.205,2.363,2.188,4.219,4.604,4.219s4.399-1.855,4.604-4.219h3.217
				c0.276,2.923,3.554,5.231,8.096,5.231c4.75,0,7.998-2.523,7.998-5.636C39,17.128,35.752,14.605,31.002,14.605z M4.317,22.795
				c-1.439,0-2.61-1.146-2.61-2.555c0-1.409,1.171-2.554,2.61-2.554c1.439,0,2.61,1.146,2.61,2.554
				C6.927,21.649,5.756,22.795,4.317,22.795z"/>
		</g>
	</g>
</g>
<g id="onss" display="none">
	<path display="inline" d="M13.452,10.813v4.615c-3.254-0.133-6.082-0.892-7.812-1.996V8.355c0.002-0.001,0.004-0.003,0.006-0.004
		L2.739,7.587C1.323,8.531,0.5,9.658,0.5,10.869c0,0,0,13.871,0,15.889s4.706,5.604,13.996,5.604c8.268,0,11.785-2.789,11.785-2.789
		v-4.903c4.781,0.061,7.295,1.433,8.071,1.946v4.945l2.807,0.804c0,0,2.341-1.456,2.341-2.792c0-1.337,0-15.768,0-15.768
		c0.093-3.163-5.918-5.906-13.424-6.125c-5.63-0.164-10.502,1.137-12.625,3.132"/>
</g>
<g id="bcss" display="none">
	<g display="inline">
		<path fill-rule="evenodd" clip-rule="evenodd" d="M1,20.125v14.943c2.62-3.026,6.077-6.878,10.037-11.024
			C7.203,22.459,3.738,21.133,1,20.125z"/>
		<path fill-rule="evenodd" clip-rule="evenodd" d="M39,26.078V3.4c-3.504,3.974-8.965,10.431-13.879,17.36
			C30.107,22.441,34.733,24.234,39,26.078z"/>
		<path fill-rule="evenodd" clip-rule="evenodd" d="M20.285,28.098c-2.283,3.789-4.149,7.507-5.206,10.844H39v-0.537
			C33.386,34.595,26.72,31.091,20.285,28.098z"/>
		<path fill-rule="evenodd" clip-rule="evenodd" d="M16.811,18.167C23.041,12.009,29.978,5.76,36.633,1H1v13.294
			C6.589,15.437,11.856,16.742,16.811,18.167z"/>
	</g>
</g>
<g id="capac" display="none">
	<path display="inline" d="M39.255,29.495c-0.228-0.125-1.148-0.577-1.148-0.577c-3.202-1.423-4.608-1.786-8.998-2.823l-0.072-0.018
		l0.565-0.566l0.022,0.006c0.505,0.123,1.03,0.185,1.559,0.185c3.706,0,6.722-3.017,6.722-6.722c0-3.706-3.016-6.722-6.722-6.722
		c-2.071,0-3.995,0.935-5.278,2.563l-0.07,0.089l-0.004-0.114c-0.139-3.624-3.091-6.464-6.72-6.464
		c-3.708,0-6.725,3.016-6.725,6.722c0,2.458,1.334,4.714,3.482,5.888l0.021,0.012v0.312h-4.655c-0.668,0-1.213,0.545-1.213,1.215
		v3.149l-0.036,0.005c-4.063,0.479-5.882,1.043-6.879,1.47l-1.142,0.443c-0.062,0.021-0.118,0.041-0.187,0.063
		c-0.018,0.006-0.031,0.021-0.05,0.027l-0.935,0.363c-0.241,0.099-0.357,0.376-0.259,0.615l0.581,1.414
		c0.099,0.24,0.375,0.356,0.616,0.259l1.191-0.489l0-0.01c0.227-0.075,0.448-0.149,0.658-0.221c2.3-0.775,3.689-1.243,9.233-1.871
		c0.645-0.074,1.117-0.633,1.077-1.275c-0.033-0.645-0.566-1.148-1.212-1.148h-0.228v-1.578h4.654c0.669,0,1.215-0.545,1.215-1.217
		v-2.299c0-0.504-0.303-0.948-0.772-1.132c-1.66-0.65-2.733-2.219-2.733-3.996c0-2.366,1.927-4.29,4.294-4.29
		c2.366,0,4.291,1.924,4.291,4.29c0,1.777-1.071,3.345-2.729,3.994c-0.469,0.183-0.772,0.627-0.772,1.131v2.302
		c0,0.672,0.545,1.217,1.215,1.217h4.124c0.323,0,0.63-0.127,0.861-0.355l1.028-1.027c0.371-0.373,0.461-0.939,0.225-1.408
		c-0.308-0.608-0.465-1.257-0.465-1.928c0-2.366,1.927-4.291,4.294-4.291c2.366,0,4.29,1.924,4.29,4.291
		c0,2.367-1.924,4.292-4.29,4.292c-0.503,0-1.007-0.092-1.499-0.274c-0.136-0.052-0.279-0.078-0.426-0.078
		c-0.322,0-0.629,0.127-0.859,0.357l-2.684,2.683c-0.326,0.325-0.439,0.799-0.297,1.235c0.139,0.434,0.508,0.751,0.962,0.824
		c3.739,0.604,6.73,1.414,9.667,2.625c0.166,0.076,0.459,0.215,0.855,0.437c0.608,0.34,1.047,0.524,1.17,0.587
		c0.25,0.125,0.518,0.039,0.642-0.189l0.729-1.342C39.567,29.907,39.482,29.619,39.255,29.495"/>
</g>
<g id="portail" display="none">
	<g display="inline">
		<path fill-rule="evenodd" clip-rule="evenodd" d="M36.487,27.523c-0.568-1.406-1.674-2.596-3.182-3.235
			c-1.523-0.646-3.167-0.604-4.584-0.013c0.568,1.406,1.676,2.597,3.184,3.234C33.429,28.155,35.072,28.111,36.487,27.523z"/>
		<path fill-rule="evenodd" clip-rule="evenodd" d="M39.286,18.972c-1.691-1.047-3.789-1.448-5.881-0.952
			c-2.115,0.501-3.82,1.823-4.862,3.548c1.693,1.048,3.791,1.447,5.882,0.951C36.54,22.017,38.246,20.696,39.286,18.972z"/>
		<path fill-rule="evenodd" clip-rule="evenodd" d="M37.641,7.593c-2.483,0.13-4.919,1.204-6.716,3.199
			c-1.816,2.016-2.627,4.583-2.476,7.09c2.486-0.125,4.921-1.2,6.718-3.195C36.982,12.67,37.794,10.102,37.641,7.593z"/>
		<path fill-rule="evenodd" clip-rule="evenodd" d="M27.078,1.216c-2.038,1.645-3.447,4.066-3.746,6.876
			c-0.301,2.841,0.593,5.528,2.276,7.573c2.037-1.645,3.447-4.065,3.745-6.876C29.653,5.95,28.76,3.259,27.078,1.216z"/>
		<path fill-rule="evenodd" clip-rule="evenodd" d="M12.808,0.5c-0.944,3.139-0.687,6.639,0.991,9.753
			c1.698,3.145,4.524,5.292,7.705,6.211c0.943-3.138,0.688-6.637-0.99-9.75C18.815,3.568,15.99,1.419,12.808,0.5z"/>
		<path fill-rule="evenodd" clip-rule="evenodd" d="M0.5,10.811c1.117,3.5,3.569,6.576,7.093,8.392
			c3.564,1.837,7.538,2.032,11.064,0.867c-1.117-3.503-3.569-6.575-7.095-8.39C8.002,9.842,4.027,9.647,0.5,10.811z"/>
		<path fill-rule="evenodd" clip-rule="evenodd" d="M2.289,26.863c2.351,1.662,5.337,2.43,8.401,1.897
			c3.094-0.534,5.674-2.284,7.331-4.679c-2.351-1.664-5.337-2.43-8.4-1.9C6.527,22.713,3.946,24.469,2.289,26.863z"/>
		<path fill-rule="evenodd" clip-rule="evenodd" d="M10.274,37.375c2.737,0.067,5.497-0.91,7.632-2.947
			c2.161-2.062,3.266-4.807,3.306-7.576c-2.736-0.064-5.497,0.912-7.632,2.947C11.421,31.859,10.313,34.609,10.274,37.375z"/>
		<path fill-rule="evenodd" clip-rule="evenodd" d="M22.809,39.5c1.632-1.256,2.788-3.139,3.074-5.346
			c0.288-2.23-0.364-4.365-1.651-6.006c-1.637,1.259-2.79,3.139-3.075,5.345C20.866,35.723,21.521,37.86,22.809,39.5z"/>
		<path fill-rule="evenodd" clip-rule="evenodd" d="M30.578,34.908c0.745-1.615,0.872-3.514,0.206-5.312
			c-0.674-1.822-2.03-3.189-3.671-3.924c-0.745,1.613-0.872,3.515-0.206,5.315C27.581,32.806,28.938,34.174,30.578,34.908z"/>
	</g>
</g>
<g id="caami" display="none">
	<g display="inline">
		
			<line fill="none" stroke="#000000" stroke-width="0.1105" stroke-linecap="round" stroke-linejoin="bevel" x1="28.525" y1="11.132" x2="29.52" y2="4.17"/>
		
			<line fill="none" stroke="#000000" stroke-width="0.1105" stroke-linecap="round" stroke-linejoin="bevel" x1="32.256" y1="12.623" x2="39.502" y2="8.635"/>
		
			<line fill="none" stroke="#000000" stroke-width="0.1105" stroke-linecap="round" stroke-linejoin="bevel" x1="31.26" y1="16.601" x2="34.742" y2="18.589"/>
		
			<line fill="none" stroke="#000000" stroke-width="0.1105" stroke-linecap="round" stroke-linejoin="bevel" x1="27.191" y1="18.215" x2="26.768" y2="21.124"/>
		
			<line fill="none" stroke="#000000" stroke-width="0.1105" stroke-linecap="round" stroke-linejoin="bevel" x1="24.465" y1="16.042" x2="18.957" y2="17.865"/>
		
			<line fill="none" stroke="#000000" stroke-width="0.1105" stroke-linecap="round" stroke-linejoin="bevel" x1="24.041" y1="12.47" x2="15.717" y2="6.908"/>
		<path fill="none" stroke="#000000" stroke-width="0.1105" stroke-linecap="round" stroke-linejoin="bevel" d="M27.834,13.464
			c0,0-1.07,0.11-1.049,1.178c0.02,0.939,1.604,1.271,1.988,0.387c0.309-0.7-0.277-1.124-0.846-1.031
			c-0.572,0.092-0.369,0.921,0.164,0.736"/>
		
			<line fill="none" stroke="#1D1D1B" stroke-width="0.1105" stroke-linecap="round" stroke-linejoin="bevel" x1="8.934" y1="20.902" x2="10.181" y2="20.471"/>
		<path d="M25.666,22.935c0,0,0.566-0.514,0.104-1.096c-0.32-0.399-0.533-0.023-0.609,0.079c-0.078,0.104-0.283,0.279-0.156,0.48
			c0.029,0.047,0.059,0.097,0.082,0.146c0.01,0.022,0.012,0.041,0.02,0.062c0.047,0.138,0.025,0.253-0.229,0.253
			c-0.381,0-1.477-0.179-1.477-0.179s0.994,0.661,1.223,0.941s0.051,0.484-0.102,0.764c-0.07,0.13-0.195,0.322-0.307,0.492
			l1.523,0.361l-0.021-0.955c0,0-0.023-0.28,0.383-0.61c0.408-0.332,1.246-1.375,1.246-1.375S26.25,22.985,25.666,22.935z"/>
		<path d="M26.994,24.834c0.131,0.257,0.182,0.205,0.018,0.368c-0.074,0.077-0.115,0.195-0.137,0.302l1.1,0.26
			c-0.008-0.112-0.006-0.226,0.023-0.312c0.082-0.244,0.434-0.628,0.713-0.758c0.281-0.128,0.631-0.794,0.631-0.794
			s-1.039,0.841-1.482,0.631c0,0,0.352,0.035,0.43-0.339c0.084-0.373-0.125-0.571-0.326-0.571c-0.197,0-0.201,0.168-0.279,0.245
			c-0.074,0.076-0.047,0.385-0.129,0.466c-0.082,0.082,0-0.022-0.361-0.069c-0.361-0.048-1.215,0.081-1.215,0.081
			S26.863,24.578,26.994,24.834z"/>
		<path d="M14.147,21.265c0,0-0.245-0.512-0.682-0.813c0,0,0.488-0.164,0.488-0.785c0-0.459-0.54-0.319-0.622-0.119
			c-0.081,0.2-0.339,0.384-0.339,0.829c0,0-0.164,0.016-0.326,0.178c-0.113,0.113-0.697,0.917-1.222,1.435l1.276,0.286
			c0.264-0.263,0.563-0.602,0.611-0.816c0.001-0.005,0.002-0.007,0.003-0.011l0.805,0.814l0.258-0.096l0.226-0.082L14.147,21.265z"
			/>
		<path d="M19.043,23.621l0.234-0.942l-4.407-0.737L14.8,21.945l-1.409,0.449L2.508,19.947L0.5,33.901l2.479,0.176
			c2.732-4.474,7.584-6.596,7.584-6.596l3.108,0.189l0.755-0.518l1.883,0.471l-0.047,0.707c8.054,2.355,8.148,8.195,8.148,8.195
			l2.779-0.423c0,0,2.218-0.944,3.409-3.064c1.037-1.837,2.243-6.169,2.243-6.169L19.043,23.621z"/>
	</g>
</g>
<g id="csam" display="none">
	<g display="inline">
		<path d="M20.792,7.573L2.5,1.044v37.902l18.289-7.543L38.006,39V1L20.792,7.573z M20.807,28.561L5.12,35.032V4.76l15.687,5.6
			V28.561z M32.639,21.125c-0.656,0-1.191-0.534-1.191-1.193c0-0.658,0.535-1.191,1.191-1.191c0.66,0,1.193,0.533,1.193,1.191
			C33.832,20.591,33.299,21.125,32.639,21.125z"/>
	</g>
</g>
<g id="kennisbeheer" display="none">
	<g display="inline">
		<path d="M26.622,13.566c-1.349,0-3.688,0.804-4.423,2.529c-0.506,0.883-0.832,1.41-1.263,1.41c-0.066,0-0.131-0.013-0.195-0.038
			c-0.205-0.083-0.399-0.162-0.476-0.373c-0.074-0.206-0.007-0.467,0.23-0.901c0.287-0.526,0.557-1.048,0.7-1.324
			c-0.416-0.165-1.4-0.515-2.288-0.515c-0.501,0-0.894,0.111-1.168,0.331l-0.042,0.033l-0.052,0.009
			c-0.686,0.121-0.809-0.253-0.831-0.357c-0.076-0.351,0.235-0.793,0.708-1.008c0.374-0.17,1.306-0.422,2.337-0.422
			c0.96,0,1.801,0.22,2.441,0.638c0.541-0.51,1.177-1.055,2.367-1.368c-0.918-0.576-3.352-1.889-6.44-1.889
			c-1.187,0-2.362,0.194-3.496,0.577c-6.013,2.027-6.081,6.936-6.081,7.144c0,0.91,0.944,4.611,5.259,5.083
			c-0.008-0.086-0.016-0.167-0.024-0.246c-0.058-0.569-0.108-1.062-0.022-1.854l0.087-0.815l0.313,0.758
			c0.882,2.131,2.816,5.709,5.855,5.709c0.082,0.002,0.156,0.004,0.228,0.004c1.834,0,2.49-0.679,2.634-0.864
			c-0.064-0.616-0.357-2.046-1.087-2.338c-0.267-0.106-0.51-0.184-0.725-0.25c-0.62-0.194-1.153-0.362-0.973-1.047
			c0.103-0.39,0.344-0.472,0.528-0.472c0.201,0,0.418,0.099,0.649,0.203c0.157,0.072,0.319,0.146,0.479,0.191
			c0.157,0.043,0.291,0.104,0.398,0.153c0.079,0.036,0.179,0.08,0.214,0.08c-0.006-0.008,0.058-0.11,0.103-0.644
			c0.108-1.295,0.478-2.221,0.987-2.478c0.133-0.065,0.271-0.1,0.404-0.1c0.219,0,0.399,0.094,0.494,0.258
			c0.083,0.144,0.133,0.399-0.099,0.798c-0.357,0.616-0.613,4.135,0.136,5.306c0.483,0.758,1.231,1.678,1.739,2.278
			c-0.169-0.84-0.349-2.084-0.078-2.672c0.34-0.742,1.127-1.029,1.958-1.333c0.211-0.076,0.424-0.154,0.635-0.241
			c0.718-0.297,2.388-1.459,2.388-5.821C31.133,15.352,27.93,13.566,26.622,13.566z M17.645,19.191
			c-0.153,0.28-0.549,0.461-1.01,0.461c-0.326,0-0.623-0.091-0.837-0.256l-0.113-0.087c-0.432-0.337-1.065-0.807-1.522-0.681
			l-0.235,0.068c-0.451,0.133-1.132,0.335-1.691,0.335c-0.445,0-0.756-0.129-0.926-0.385c-0.212-0.318-0.318-0.543-0.227-0.747
			c0.105-0.237,0.39-0.277,0.86-0.344l0.209-0.028c0.402-0.051,0.817-0.104,0.994-0.339c0.103-0.137,0.132-0.338,0.088-0.618
			c-0.17-1.093-0.196-3.228,0.928-3.487c0.328-0.075,0.526,0.044,0.608,0.148c0.187,0.235,0.119,0.613,0.027,1.011
			c-0.5,2.176-0.086,2.694,0.115,2.816c0.206,0.125,0.438,0.271,0.671,0.42c0.517,0.326,1.298,0.819,1.466,0.843
			c0.197,0.014,0.485,0.096,0.613,0.311C17.719,18.727,17.791,18.924,17.645,19.191z"/>
		<path d="M20,1C9.507,1,1,9.507,1,20s8.507,19,19,19c10.493,0,19-8.507,19-19S30.493,1,20,1z M27.597,25.359
			c-0.088,0.145-0.175,0.57-0.113,1.168c0.069,0.684,0.298,1.262,0.625,1.588c0.791,0.791,1.357,1.182,1.363,1.186l0.166,0.115
			l-1.182,1.847l-0.17-0.092c-0.11-0.059-2.67-1.44-4.488-3.945c-0.493,0.347-1.774,1.111-3.473,1.111
			c-2.225,0-4.213-1.276-5.913-3.797c-0.05,0.001-0.102,0.002-0.158,0.002c-1.648,0-7.024-0.514-7.024-7.115
			c0-5.957,5.973-8.624,11.892-8.624c5.063,0,7.095,2.638,7.449,3.164c0.805,0.127,6.199,1.159,6.199,6.004
			C32.771,23.279,29.206,24.898,27.597,25.359z"/>
	</g>
</g>
<g id="samendigitaal" display="none">
	<polygon display="inline" points="39,4.873 1,20.676 12.072,24.465 14.634,33.969 19.402,28.398 30.488,34.609 	"/>
</g>
<g id="smals" display="none">
	<g display="inline">
		<path d="M20,1L20,1L20,1L20,1L1,20l19,18.998V39l0,0l0,0l19-19L20,1z M20,27.293L20,27.293L20,27.293
			c-4.028,0-7.293-3.266-7.293-7.292c0-4.028,3.265-7.293,7.293-7.293l0,0l0,0c4.028,0,7.293,3.265,7.293,7.293
			C27.293,24.027,24.027,27.293,20,27.293z"/>
	</g>
</g>
<g id="gcloud">
	<g>
		<path d="M8.558,18.734c-0.342,0-0.615,0.11-0.837,0.339c-0.222,0.229-0.33,0.51-0.33,0.857c0,0.363,0.11,0.652,0.338,0.88
			c0.227,0.23,0.505,0.342,0.851,0.342c0.336,0,0.605-0.107,0.822-0.332c0.218-0.225,0.324-0.512,0.324-0.88
			c0-0.363-0.106-0.648-0.326-0.873C9.181,18.842,8.906,18.734,8.558,18.734z M9.103,20.512c-0.139,0.145-0.312,0.215-0.529,0.215
			c-0.224,0-0.403-0.072-0.55-0.221s-0.218-0.336-0.218-0.572c0-0.227,0.07-0.408,0.213-0.556c0.142-0.146,0.319-0.218,0.54-0.218
			c0.225,0,0.403,0.07,0.543,0.214c0.141,0.145,0.209,0.329,0.209,0.565C9.311,20.182,9.243,20.367,9.103,20.512z"/>
		<path d="M32.361,18.625c-0.187,0-0.354,0.044-0.512,0.135c-0.156,0.092-0.278,0.217-0.371,0.384
			c-0.096,0.169-0.143,0.343-0.143,0.529c0,0.185,0.047,0.358,0.144,0.53c0.095,0.168,0.219,0.297,0.377,0.391
			c0.154,0.09,0.329,0.137,0.504,0.137c0.177,0,0.357-0.047,0.521-0.139s0.284-0.213,0.371-0.367
			c0.089-0.158,0.132-0.333,0.132-0.539c0-0.313-0.094-0.556-0.296-0.762C32.887,18.72,32.656,18.625,32.361,18.625z M32.929,20.029
			c-0.056,0.098-0.132,0.174-0.235,0.232c-0.213,0.119-0.452,0.119-0.653,0.002c-0.101-0.061-0.179-0.141-0.24-0.25
			c-0.062-0.11-0.093-0.22-0.093-0.339s0.03-0.23,0.092-0.339c0.06-0.106,0.137-0.187,0.236-0.243
			c0.1-0.059,0.207-0.087,0.326-0.087c0.188,0,0.335,0.061,0.463,0.19c0.129,0.131,0.188,0.286,0.188,0.488
			C33.013,19.815,32.984,19.928,32.929,20.029z"/>
		<path d="M31.098,12.287c-0.186,0-0.367,0.009-0.549,0.021c-1.905-1.751-4.447-2.821-7.239-2.821s-5.334,1.07-7.239,2.821
			c-0.182-0.012-0.364-0.021-0.548-0.021c-1.893,0-3.63,0.667-4.991,1.777c-0.852-0.39-1.798-0.608-2.796-0.608
			C4.015,13.456,1,16.471,1,20.189c0,3.719,3.015,6.734,6.734,6.734c0.998,0,1.944-0.219,2.796-0.607
			c1.361,1.109,3.098,1.775,4.991,1.775c0.185,0,0.367-0.008,0.548-0.02c1.905,1.75,4.447,2.82,7.239,2.82s5.334-1.07,7.239-2.82
			c0.182,0.012,0.363,0.02,0.549,0.02c4.364,0,7.902-3.537,7.902-7.902C39,15.825,35.462,12.287,31.098,12.287z M25.99,17.637h1.003
			v1.915c0,0.489,0.034,0.68,0.055,0.752c0.046,0.15,0.13,0.268,0.261,0.355c0.125,0.086,0.307,0.137,0.499,0.137
			c0.188,0,0.36-0.047,0.481-0.131c0.127-0.088,0.211-0.199,0.259-0.34c0.017-0.047,0.054-0.215,0.054-0.774v-1.915h1.012v1.999
			c0,0.53-0.063,0.924-0.194,1.209c-0.136,0.293-0.343,0.527-0.616,0.695c-0.27,0.164-0.605,0.248-0.998,0.248
			c-0.359,0.059-0.709-0.049-0.998-0.248c-0.277-0.168-0.486-0.404-0.622-0.703c-0.13-0.287-0.194-0.691-0.194-1.234V17.637z
			 M21.561,18.163c0.426-0.473,0.972-0.712,1.621-0.712c0.646,0,1.191,0.238,1.619,0.708c0.385,0.426,0.58,0.937,0.58,1.518
			c0,0.583-0.205,1.101-0.611,1.537c-0.412,0.443-0.946,0.668-1.588,0.668c-0.643,0-1.178-0.225-1.59-0.668
			c-0.406-0.436-0.612-0.953-0.612-1.537C20.979,19.097,21.175,18.588,21.561,18.163z M19.355,16.281h1.186v5.6h-1.186V16.281z
			 M11.002,21.631c0,0.799-0.166,1.396-0.492,1.779c-0.438,0.518-1.101,0.779-1.973,0.779c-0.461,0-0.855-0.059-1.172-0.176
			c-0.32-0.117-0.594-0.291-0.814-0.52s-0.386-0.51-0.492-0.836l-0.039-0.119h1.443l0.027,0.031c0.104,0.119,0.235,0.207,0.399,0.27
			c0.167,0.062,0.369,0.094,0.6,0.094c0.295,0,0.534-0.045,0.709-0.135c0.173-0.088,0.291-0.197,0.36-0.332
			c0.038-0.076,0.066-0.186,0.084-0.326l0.025-0.203l-0.168,0.117c-0.099,0.068-0.21,0.129-0.352,0.189
			c-0.223,0.098-0.445,0.148-0.643,0.148c-0.046,0-0.091-0.002-0.135-0.008c-0.674-0.092-1.212-0.244-1.647-0.699
			c-0.441-0.463-0.665-1.055-0.665-1.759c0-0.754,0.237-1.369,0.706-1.828c0.426-0.417,0.941-0.629,1.531-0.629
			c0.276,0,0.542,0.052,0.788,0.153c0.145,0.06,0.292,0.144,0.438,0.249l0.145,0.105v-0.389h1.336V21.631z M12.462,20.367h-1.111
			v-0.814h1.111V20.367z M34.534,23.559c-1.389,0-17.874-0.002-17.983-0.002c-0.922-0.029-2.136-0.326-2.671-0.844
			C13.295,22.15,13,21.455,13,20.646c0-0.539,0.138-1.048,0.41-1.511c0.273-0.465,0.652-0.832,1.128-1.092
			c0.465-0.256,1.011-0.391,1.579-0.391c0.368,0,0.727,0.057,1.066,0.168c0.341,0.113,0.636,0.262,0.878,0.445
			c0.246,0.186,0.458,0.426,0.628,0.711l0.153,0.256l-1.003,0.624l-0.167-0.222c-0.387-0.514-0.902-0.764-1.576-0.764
			c-0.536,0-0.967,0.166-1.317,0.506c-0.348,0.338-0.516,0.738-0.516,1.222c0,0.314,0.078,0.604,0.239,0.885
			c0.159,0.275,0.373,0.486,0.651,0.639c0.29,0.16,1.166,0.221,1.449,0.229c0.04,0.002,16.54,0.002,17.93,0.002V23.559z
			 M34.534,21.791h-1.179v-0.174l-0.132,0.062c-0.279,0.133-0.587,0.201-0.912,0.201c-0.597,0-1.114-0.219-1.536-0.65
			c-0.419-0.43-0.631-0.959-0.631-1.572c0-0.604,0.215-1.127,0.639-1.556c0.424-0.43,0.943-0.647,1.541-0.647
			c0.325,0,0.627,0.066,0.898,0.198l0.133,0.063V16.19h1.179V21.791z"/>
		<path d="M22.672,20.586c0.149,0.084,0.325,0.129,0.509,0.129c0.183,0,0.358-0.045,0.509-0.129c0.151-0.088,0.27-0.207,0.361-0.369
			c0.092-0.166,0.137-0.339,0.137-0.532c0-0.302-0.096-0.54-0.303-0.751c-0.203-0.209-0.428-0.307-0.704-0.307
			c-0.279,0-0.503,0.098-0.706,0.307c-0.206,0.211-0.301,0.449-0.301,0.751c0,0.191,0.045,0.366,0.137,0.532
			C22.402,20.379,22.52,20.5,22.672,20.586z M22.715,19.196c0.129-0.132,0.285-0.199,0.466-0.199c0.179,0,0.335,0.067,0.465,0.199
			c0.129,0.133,0.194,0.295,0.194,0.482c0,0.123-0.029,0.234-0.088,0.339c-0.061,0.107-0.139,0.188-0.24,0.244
			c-0.1,0.057-0.215,0.088-0.331,0.088c-0.117,0-0.231-0.029-0.331-0.088c-0.101-0.057-0.182-0.139-0.24-0.244
			c-0.06-0.105-0.088-0.216-0.088-0.339C22.521,19.491,22.586,19.329,22.715,19.196z"/>
	</g>
</g>
<g id="gcloud_V2" display="none">
	<g display="inline">
		<path d="M8.558,18.734c-0.342,0-0.615,0.11-0.837,0.339c-0.222,0.229-0.33,0.51-0.33,0.857c0,0.363,0.11,0.652,0.338,0.88
			c0.227,0.23,0.505,0.342,0.851,0.342c0.336,0,0.605-0.107,0.822-0.332c0.218-0.225,0.324-0.512,0.324-0.88
			c0-0.363-0.106-0.648-0.326-0.873C9.181,18.842,8.906,18.734,8.558,18.734z"/>
		<path d="M32.361,18.625c-0.187,0-0.354,0.044-0.512,0.135c-0.156,0.092-0.278,0.217-0.371,0.384
			c-0.096,0.169-0.143,0.343-0.143,0.529c0,0.185,0.047,0.358,0.144,0.53c0.095,0.168,0.219,0.297,0.377,0.391
			c0.154,0.09,0.329,0.137,0.504,0.137c0.177,0,0.357-0.047,0.521-0.139s0.284-0.213,0.371-0.367
			c0.089-0.158,0.132-0.333,0.132-0.539c0-0.313-0.094-0.556-0.296-0.762C32.887,18.72,32.656,18.625,32.361,18.625z"/>
		<path d="M31.098,12.287c-0.186,0-0.367,0.009-0.549,0.021c-1.905-1.751-4.447-2.821-7.239-2.821s-5.334,1.07-7.239,2.821
			c-0.182-0.012-0.364-0.021-0.548-0.021c-1.893,0-3.63,0.667-4.991,1.777c-0.852-0.39-1.798-0.608-2.796-0.608
			C4.015,13.456,1,16.471,1,20.189c0,3.719,3.015,6.734,6.734,6.734c0.998,0,1.944-0.219,2.796-0.607
			c1.361,1.109,3.098,1.775,4.991,1.775c0.185,0,0.367-0.008,0.548-0.02c1.905,1.75,4.447,2.82,7.239,2.82s5.334-1.07,7.239-2.82
			c0.182,0.012,0.363,0.02,0.549,0.02c4.364,0,7.902-3.537,7.902-7.902C39,15.825,35.462,12.287,31.098,12.287z M25.99,17.637h1.003
			v1.915c0,0.489,0.034,0.68,0.055,0.752c0.046,0.15,0.13,0.268,0.261,0.355c0.125,0.086,0.307,0.137,0.499,0.137
			c0.188,0,0.36-0.047,0.481-0.131c0.127-0.088,0.211-0.199,0.259-0.34c0.017-0.047,0.054-0.215,0.054-0.774v-1.915h1.012v1.999
			c0,0.53-0.063,0.924-0.194,1.209c-0.136,0.293-0.343,0.527-0.616,0.695c-0.27,0.164-0.605,0.248-0.998,0.248
			c-0.359,0.059-0.709-0.049-0.998-0.248c-0.277-0.168-0.486-0.404-0.622-0.703c-0.13-0.287-0.194-0.691-0.194-1.234V17.637z
			 M21.561,18.163c0.426-0.473,0.972-0.712,1.621-0.712c0.646,0,1.191,0.238,1.619,0.708c0.385,0.426,0.58,0.937,0.58,1.518
			c0,0.583-0.205,1.101-0.611,1.537c-0.412,0.443-0.946,0.668-1.588,0.668c-0.643,0-1.178-0.225-1.59-0.668
			c-0.406-0.436-0.612-0.953-0.612-1.537C20.979,19.097,21.175,18.588,21.561,18.163z M19.355,16.281h1.186v5.6h-1.186V16.281z
			 M11.002,21.631c0,0.799-0.166,1.396-0.492,1.779c-0.438,0.518-1.101,0.779-1.973,0.779c-0.461,0-0.855-0.059-1.172-0.176
			c-0.32-0.117-0.594-0.291-0.814-0.52s-0.386-0.51-0.492-0.836l-0.039-0.119h1.443l0.027,0.031c0.104,0.119,0.235,0.207,0.399,0.27
			c0.167,0.062,0.369,0.094,0.6,0.094c0.295,0,0.534-0.045,0.709-0.135c0.173-0.088,0.291-0.197,0.36-0.332
			c0.038-0.076,0.066-0.186,0.084-0.326l0.025-0.203l-0.168,0.117c-0.099,0.068-0.21,0.129-0.352,0.189
			c-0.223,0.098-0.445,0.148-0.643,0.148c-0.046,0-0.091-0.002-0.135-0.008c-0.674-0.092-1.212-0.244-1.647-0.699
			c-0.441-0.463-0.665-1.055-0.665-1.759c0-0.754,0.237-1.369,0.706-1.828c0.426-0.417,0.941-0.629,1.531-0.629
			c0.276,0,0.542,0.052,0.788,0.153c0.145,0.06,0.292,0.144,0.438,0.249l0.145,0.105v-0.389h1.336V21.631z M12.462,20.367h-1.111
			v-0.814h1.111V20.367z M34.534,23.559c-1.389,0-17.874-0.002-17.983-0.002c-0.922-0.029-2.136-0.326-2.671-0.844
			C13.295,22.15,13,21.455,13,20.646c0-0.539,0.138-1.048,0.41-1.511c0.273-0.465,0.652-0.832,1.128-1.092
			c0.465-0.256,1.011-0.391,1.579-0.391c0.368,0,0.727,0.057,1.066,0.168c0.341,0.113,0.636,0.262,0.878,0.445
			c0.246,0.186,0.458,0.426,0.628,0.711l0.153,0.256l-1.003,0.624l-0.167-0.222c-0.387-0.514-0.902-0.764-1.576-0.764
			c-0.536,0-0.967,0.166-1.317,0.506c-0.348,0.338-0.516,0.738-0.516,1.222c0,0.314,0.078,0.604,0.239,0.885
			c0.159,0.275,0.373,0.486,0.651,0.639c0.29,0.16,1.166,0.221,1.449,0.229c0.04,0.002,16.54,0.002,17.93,0.002V23.559z
			 M34.534,21.791h-1.179v-0.174l-0.132,0.062c-0.279,0.133-0.587,0.201-0.912,0.201c-0.597,0-1.114-0.219-1.536-0.65
			c-0.419-0.43-0.631-0.959-0.631-1.572c0-0.604,0.215-1.127,0.639-1.556c0.424-0.43,0.943-0.647,1.541-0.647
			c0.325,0,0.627,0.066,0.898,0.198l0.133,0.063V16.19h1.179V21.791z"/>
		<path d="M22.672,20.586c0.149,0.084,0.325,0.129,0.509,0.129c0.183,0,0.358-0.045,0.509-0.129c0.151-0.088,0.27-0.207,0.361-0.369
			c0.092-0.166,0.137-0.339,0.137-0.532c0-0.302-0.096-0.54-0.303-0.751c-0.203-0.209-0.428-0.307-0.704-0.307
			c-0.279,0-0.503,0.098-0.706,0.307c-0.206,0.211-0.301,0.449-0.301,0.751c0,0.191,0.045,0.366,0.137,0.532
			C22.402,20.379,22.52,20.5,22.672,20.586z"/>
	</g>
</g>
<g id="student" display="none">
	<path display="inline" d="M30.19,20.798c-1.152-0.916-2.543-1.675-4.174-2.277c-1.579-0.583-3.354-0.977-5.317-1.192l0,0
		c-0.113-0.036-0.231-0.061-0.351-0.081c-0.03-0.005-0.061-0.01-0.091-0.014c-0.121-0.016-0.244-0.028-0.37-0.028
		c-0.041,0-0.081,0.004-0.121,0.005c-0.894-0.124-1.742-0.296-2.544-0.522c-1.021-0.288-1.91-0.646-2.669-1.073
		c-0.76-0.428-1.365-0.93-1.819-1.505c-0.453-0.576-0.681-1.23-0.681-1.963c0-0.086,0-0.161,0-0.222s0.009-0.135,0.026-0.223v-0.157
		c0.087-0.68,0.357-1.33,0.812-1.949c0.453-0.619,1.047-1.165,1.779-1.636c0.732-0.471,1.57-0.846,2.513-1.125
		c0.942-0.278,1.954-0.418,3.035-0.418c0.873,0,1.675,0.065,2.408,0.196s1.396,0.301,1.989,0.51
		c0.593,0.209,1.121,0.458,1.584,0.746c0.461,0.288,0.858,0.572,1.189,0.85c0.279,0.262,0.528,0.568,0.746,0.916
		c0.219,0.35,0.463,0.694,0.732,1.034c0.271,0.34,0.576,0.624,0.917,0.85c0.34,0.228,0.772,0.34,1.296,0.34
		c0.33,0,0.662-0.065,0.994-0.196c0.33-0.131,0.623-0.318,0.877-0.563c0.252-0.243,0.457-0.531,0.615-0.863
		c0.156-0.331,0.234-0.707,0.234-1.125c0-0.436-0.113-0.854-0.34-1.256c-1.222-2.163-2.936-3.847-5.143-5.051
		C26.112,1.602,23.412,1,20.219,1c-1.779,0-3.445,0.253-4.998,0.759c-1.553,0.507-2.923,1.2-4.108,2.081
		C9.926,4.721,8.953,5.754,8.194,6.94c-0.76,1.188-1.252,2.47-1.479,3.847v0.131c-0.017,0.018-0.034,0.079-0.052,0.183
		c-0.018,0.105-0.031,0.223-0.039,0.354c-0.01,0.131-0.014,0.266-0.014,0.405c0,0.14,0,0.253,0,0.34
		c0,1.379,0.306,2.657,0.916,3.834s1.492,2.221,2.644,3.127c1.151,0.908,2.547,1.667,4.188,2.277
		c1.64,0.611,3.497,1.029,5.574,1.256c1.309,0.158,2.481,0.393,3.521,0.707c1.037,0.314,1.919,0.693,2.643,1.139
		c0.725,0.444,1.283,0.955,1.676,1.531c0.393,0.575,0.588,1.203,0.588,1.884v0.313v0.027c0,0.018-0.004,0.039-0.013,0.064
		c-0.009,0.026-0.014,0.049-0.014,0.066c-0.104,0.785-0.405,1.495-0.902,2.132s-1.126,1.178-1.884,1.622
		c-0.76,0.445-1.602,0.791-2.526,1.035s-1.858,0.365-2.801,0.365c-1.465,0-2.844-0.205-4.135-0.615
		c-1.291-0.408-2.303-0.972-3.035-1.688c-0.314-0.313-0.589-0.65-0.825-1.008c-0.235-0.357-0.483-0.693-0.745-1.007
		s-0.559-0.581-0.89-0.798c-0.332-0.219-0.76-0.328-1.283-0.328c-0.349,0-0.688,0.074-1.021,0.223
		c-0.331,0.148-0.619,0.346-0.863,0.59s-0.437,0.535-0.576,0.876c-0.139,0.34-0.209,0.685-0.209,1.034
		c0,0.244,0.03,0.466,0.092,0.666c0.061,0.201,0.144,0.406,0.248,0.616c0.472,0.907,1.095,1.775,1.872,2.604
		c0.775,0.829,1.709,1.562,2.8,2.198c1.09,0.638,2.346,1.139,3.769,1.505c1.422,0.366,3.022,0.55,4.802,0.55
		c1.885,0,3.608-0.271,5.169-0.812c1.562-0.54,2.923-1.265,4.084-2.172c1.16-0.907,2.097-1.95,2.812-3.128
		c0.715-1.178,1.186-2.402,1.414-3.676v-0.131c0.033-0.035,0.055-0.197,0.064-0.484c0.01-0.289,0.014-0.52,0.014-0.693
		c0-1.414-0.311-2.723-0.93-3.926C32.228,22.774,31.343,21.715,30.19,20.798z"/>
</g>
<g id="felix" display="none">
	<g display="inline">
		<path fill-rule="evenodd" clip-rule="evenodd" d="M39.004,26.396L28.621,12.8L18.236,26.396H39.004z"/>
		<path fill-rule="evenodd" clip-rule="evenodd" d="M21.768,26.396L11.384,12.8L1,26.396H21.768z"/>
	</g>
</g>
<g id="esante" display="none">
	<g display="inline">
		<path d="M28.256,1.001c0,0-7.993-0.304-7.993,7.997C28.564,8.999,28.256,1.001,28.256,1.001z"/>
		<path d="M20.064,19.294c-1.931,0-2.63,1.265-2.63,2.766v1.665l5.13-1v-1.431C22.564,19.961,21.53,19.294,20.064,19.294z"/>
		<path d="M20,11.05c-7.718,0-13.975,6.257-13.975,13.975C6.025,32.743,12.282,39,20,39c7.719,0,13.975-6.257,13.975-13.975
			C33.975,17.307,27.719,11.05,20,11.05z M25.598,23.525c0,0.832-0.436,1.635-1.6,1.83l-6.564,1.232v1.636
			c0.033,1.397,1,2.599,2.563,2.599c1.932,0,2.567-1.27,2.567-2.533c0-0.998,0.967-0.998,0.967-0.998h1.033
			c0.631,0,1.033,0.3,1.033,1.035c0,2.926-2.133,5.292-5.6,5.292c-3.298,0-5.596-2.301-5.596-5.395v-5.899
			c0-3.331,2.066-5.829,5.831-5.829c3.033,0,5.365,1.833,5.365,4.798V23.525z"/>
	</g>
</g>
<g id="fedris" display="none">
	<g display="inline">
		<path d="M23.713,13.704c-0.413-1.382-1.458-2.539-3.135-3.469c-1.135-0.63-2.109-1.01-2.922-1.141l-1.659,4.144
			c0.379,0.077,0.738,0.176,1.076,0.296c0.338,0.122,0.657,0.265,0.954,0.43c0.615,0.341,1.017,0.786,1.207,1.333
			c0.19,0.548,0.187,1.237-0.007,2.066l-0.332,1.424l-1.032,4.45l-1.542,6.663c-0.237,1.046-0.353,1.987-0.346,2.822
			c0.007,0.835,0.148,1.589,0.424,2.266c0.275,0.674,0.684,1.276,1.223,1.805c0.54,0.526,1.21,1.014,2.01,1.458
			c0.354,0.197,0.657,0.351,0.908,0.462c0.251,0.113,0.52,0.21,0.808,0.288l1.62-4.044c-0.381-0.131-0.738-0.29-1.073-0.475
			c-0.597-0.331-0.982-0.734-1.157-1.207c-0.175-0.471-0.173-1.1,0.005-1.885l1.365-5.795l1.031-4.451l0.584-2.65
			C24.13,16.683,24.127,15.086,23.713,13.704z"/>
		<circle cx="19.85" cy="3.463" r="2.463"/>
	</g>
</g>
<g id="primabook" display="none">
	<g display="inline">
		<path d="M37.791,22.365c-0.635,0.189-1.205,0.745-1.221,1.449c0.07,0.286,0.451,0.338,0.725,0.268
			c0.848-0.26,1.531-0.754,1.705-1.618C38.789,22.029,38.178,22.332,37.791,22.365z"/>
		<path d="M33.645,25.545c-1.645,1.068-2.148,1.627-3.074,2.199c0.027,0.521,0.078,2.311,0.023,4.945
			c2.941-2.408,3.629-4.232,5.227-6.694c0.188-0.33,0.449-0.888,0.25-1.124C35.455,24.439,33.641,25.6,33.645,25.545z"/>
		<path d="M18.632,9.133c0.195,0.31,0.344,0.75,0.727,0.813c0.838-0.424,0.86-1.54,0.949-2.35l0.104,0.072
			c-0.189-0.44-0.685-1.177-1.136-0.774l-0.04-0.045c-0.243,0.5-0.566,0.994-0.69,1.672C18.489,8.732,18.772,8.925,18.632,9.133z"/>
		<path d="M29.145,12.25l-0.582,0.028l-0.033,0.053c-0.504,0.139-0.355,0.57-0.639,1.025c-0.111,0.424-0.158,0.103-0.125,0.576
			l0.098,0.019c-0.004,0.296-0.035,0.244,0,0.388c0.145,0.482,0.418,0.928,0.973,1.001c0.527-0.227,0.977-0.588,1.346-1.039
			c0.24-0.416,0.324-1.141,0.047-1.544C29.82,12.391,29.607,12.405,29.145,12.25z"/>
		<path d="M10.683,14.975c0.838-0.49,1.185-1.123,1.154-2.07c-0.275-0.444-0.546-0.605-0.892-0.635
			c-0.441,0.47-0.881,1.266-0.808,2.214C10.223,14.756,10.345,14.869,10.683,14.975z"/>
		<path d="M29.561,25.891c-0.059-3.285-0.055-6.33-1.189-9.234c-1.877-0.194-2.422,1.833-3.467,2.847
			c0.23-1.79,0.289-3.543,0.127-5.229c-0.271-0.487-0.305-1.389-1.08-1.35c-2.174,1.208-3.014,3.906-4.274,5.68
			c0.186-1.02-0.035-2.408,0.148-3.381c0.006-0.86,0.026-1.934-0.224-2.803c-0.462-0.2-1.071-0.021-1.596,0.121
			c-3.294,2.088-5.352,5.748-7.542,8.799c0.096-1.672,0.188-3.297,0.07-4.976l-0.742,0.213c-3.554,2.846-5.212,7.085-7.026,11.015
			C2.121,28.865,1.351,31.066,1,32.775c0,0,1.589-0.275,3.464-0.338c2.221-0.074,2.678,0.164,2.678,0.164s-0.12,0.424-0.076,0.611
			c0.025,0.099,3.996-0.724,6.468-0.653c3.242,0.089,3.078,0.583,3.788,0.527c0.035-0.168,0.374-0.205,0.375-0.312
			c0.001-0.047,2.825-0.426,3.813-0.164c0.918,0.24,0.861,0.398,1.252,0.35c0,0,0.232-0.131,0.564-0.186
			c0.715-0.122,1.816-0.143,3.609-0.113c1.881,0.031,2.371,0.401,2.402,0.353c0.248-0.041,0.326-0.199,0.326-0.231
			c0.072-2.573-0.033-5.553-0.033-5.553C29.623,26.939,29.566,26.182,29.561,25.891z M9.206,26.918
			c-0.41,1.505-0.838,2.317-1.006,2.851c-0.109,0.344,0.096-4.333,0.558-4.378c0.838-0.074,0.993-2.761,1.305-2.889
			C10.228,22.432,9.724,25.028,9.206,26.918z M18.841,23.377c-0.445,1.587-0.881,2.355-0.869,0.719
			c0.012-1.635,1.101-2.738,1.101-2.738S19.284,21.789,18.841,23.377z M24.221,24.908c-0.848,1.274-1.293,1.88-1.396,2.335
			c-0.107,0.459,0.209-2.833,0.605-2.827c0.809,0.007,1.199-3.54,1.199-3.54S25.08,23.619,24.221,24.908z"/>
		<path d="M23.588,10.023c0,0.071-0.002,0.136,0.002,0.207c0.238,0.36,0.457,1.016,1.072,0.793c0.617-0.308,0.961-1.061,1.129-1.74
			c-0.088-0.733-0.479-1.357-1.287-1.49c-0.52,0.593-0.832,1.117-0.9,1.86l0.012,0.122l0.129,0.316l-0.098,0.063L23.588,10.023z"/>
	</g>
</g>
<g id="portalinfo" display="none">
	<path display="inline" d="M35.725,15.414c-0.317,0-0.618,0.06-0.909,0.144L30.93,8.173c0.526-0.48,0.863-1.165,0.863-1.932
		c0-1.445-1.176-2.621-2.62-2.621c-1.218,0-2.234,0.838-2.527,1.966H14.692c-0.304-1.494-1.627-2.621-3.209-2.621
		c-1.806,0-3.276,1.47-3.276,3.276c0,0.927,0.391,1.761,1.012,2.357l-4.804,7.606c-0.252-0.081-0.515-0.136-0.794-0.136
		C2.176,16.069,1,17.245,1,18.689c0,1.445,1.176,2.621,2.621,2.621c0.172,0,0.34-0.02,0.502-0.052l4.212,8.808
		c-0.877,0.721-1.438,1.815-1.438,3.037c0,2.168,1.763,3.931,3.931,3.931c1.928,0,3.533-1.396,3.865-3.23l9.458-1.514
		c0.468,1.237,1.656,2.124,3.056,2.124c1.806,0,3.275-1.47,3.275-3.276c0-0.884-0.355-1.684-0.926-2.273l4.896-7.156
		c0.392,0.165,0.821,0.258,1.272,0.258c1.806,0,3.275-1.47,3.275-3.276C39,16.883,37.53,15.414,35.725,15.414z M27.207,27.862
		c-0.407,0-0.794,0.084-1.154,0.221l-4.501-7.126c0.8-0.641,1.38-1.543,1.611-2.577l9.326,0.718c0.091,0.72,0.404,1.37,0.886,1.866
		l-4.896,7.155C28.087,27.954,27.657,27.862,27.207,27.862z M15.414,17.379c0-1.806,1.47-3.276,3.276-3.276
		c1.807,0,3.276,1.47,3.276,3.276s-1.47,3.276-3.276,3.276C16.883,20.655,15.414,19.186,15.414,17.379z M33.657,16.169
		c-0.507,0.417-0.882,0.976-1.068,1.622l-9.328-0.718c-0.064-0.959-0.421-1.838-0.987-2.547l5.646-5.998
		c0.373,0.206,0.796,0.333,1.253,0.333c0.207,0,0.405-0.03,0.599-0.076L33.657,16.169z M29.173,4.931c0.723,0,1.31,0.587,1.31,1.31
		s-0.587,1.311-1.31,1.311c-0.724,0-1.311-0.588-1.311-1.311S28.449,4.931,29.173,4.931z M14.692,6.896h11.954
		c0.068,0.264,0.174,0.513,0.315,0.738l-5.641,5.994c-0.746-0.525-1.651-0.836-2.631-0.836c-0.718,0-1.395,0.17-2,0.466l-2.943-4.66
		C14.217,8.147,14.557,7.56,14.692,6.896z M11.483,4.276c1.083,0,1.965,0.882,1.965,1.965c0,1.084-0.882,1.966-1.965,1.966
		c-1.084,0-1.966-0.882-1.966-1.966C9.517,5.158,10.399,4.276,11.483,4.276z M11.483,9.517c0.407,0,0.794-0.084,1.154-0.221
		l2.967,4.7c-0.864,0.788-1.423,1.899-1.489,3.142l-8.02,0.729c-0.122-0.363-0.314-0.691-0.571-0.965l4.803-7.604
		C10.689,9.433,11.075,9.517,11.483,9.517z M2.311,18.689c0-0.723,0.587-1.31,1.31-1.31s1.311,0.587,1.311,1.31
		C4.931,19.413,4.343,20,3.621,20S2.311,19.413,2.311,18.689z M5.301,20.684c0.453-0.382,0.778-0.906,0.892-1.51l8.041-0.73
		c0.271,1.135,0.961,2.11,1.903,2.744l-3.952,8.232c-0.424-0.157-0.879-0.246-1.356-0.246c-0.475,0-0.929,0.089-1.351,0.244
		L5.301,20.684z M10.828,35.725c-1.445,0-2.621-1.177-2.621-2.621s1.175-2.621,2.621-2.621c1.445,0,2.621,1.177,2.621,2.621
		S12.272,35.725,10.828,35.725z M23.945,30.996l-9.242,1.479c-0.156-0.963-0.658-1.812-1.379-2.406l3.991-8.315
		c0.435,0.138,0.895,0.212,1.374,0.212c0.613,0,1.198-0.123,1.732-0.343l4.521,7.157C24.354,29.345,23.983,30.127,23.945,30.996z
		 M27.207,33.104c-1.084,0-1.966-0.882-1.966-1.966s0.882-1.965,1.966-1.965s1.966,0.881,1.966,1.965S28.291,33.104,27.207,33.104z
		 M35.725,20.655c-1.084,0-1.966-0.882-1.966-1.966c0-1.083,0.882-1.965,1.966-1.965c1.083,0,1.965,0.882,1.965,1.965
		C37.689,19.773,36.808,20.655,35.725,20.655z"/>
</g>
<g id="inasti" display="none">
	<g display="inline">
		<path d="M20,10.087c-7.469,0-13.929,2.257-17.033,5.538h34.066C33.928,12.344,27.47,10.087,20,10.087"/>
		<path d="M1,20.03c0,3.356,3.171,6.319,8.027,8.119v-5.758c0-1.209,0.982-2.191,2.194-2.191c1.214,0,2.195,0.982,2.195,2.191v6.972
			c1.393,0.272,2.864,0.454,4.39,0.55v-7.521c0-1.209,0.983-2.191,2.194-2.191c1.211,0,2.195,0.982,2.195,2.191v7.521
			c1.523-0.096,2.997-0.277,4.389-0.55v-6.972c0-1.209,0.981-2.191,2.195-2.191c1.211,0,2.194,0.982,2.194,2.191v5.758
			C35.829,26.35,39,23.387,39,20.03c0-1.162-0.385-2.276-1.089-3.319H2.088C1.385,17.754,1,18.868,1,20.03"/>
	</g>
</g>
<g id="sfpd" display="none">
	<g display="inline">
		<path d="M5.124,13.363c2.337,0.068,4.354-1.821,4.354-4.219C9.484,6.789,7.585,4.877,5.24,4.879
			C2.947,4.881,1.053,6.768,1.001,9.015C0.949,11.322,2.785,13.295,5.124,13.363z"/>
		<polygon points="17.711,22.348 17.711,22.35 17.711,22.348 		"/>
		<polygon points="17.711,22.35 17.711,22.35 17.711,22.35 		"/>
		<path d="M36.229,7.738c-1.921-2.431-4.396-4.035-7.42-4.713c-4.03-0.906-7.726-0.078-11.103,2.354c0-0.073-0.002-0.114,0-0.155
			c0.061-0.912-0.596-1.369-1.344-1.342c-0.833,0.03-1.666,0.006-2.499,0.006c-0.811,0.001-1.276,0.465-1.276,1.273
			c0,2.916,0,5.831-0.001,8.747c0,0.373-0.006,0.746-0.009,1.118c-0.059,0.016-0.117,0.033-0.176,0.048
			c-2.195,0.561-4.293,1.361-6.229,2.55c-1.622,0.996-3.064,2.192-4.068,3.838c-1.266,2.075-1.427,4.219-0.295,6.403
			c0.67,1.293,1.692,2.274,2.865,3.11c0.144,0.102,0.289,0.213,0.473,0.098c0.19-0.12,0.172-0.309,0.134-0.491
			c-0.354-1.712-0.042-3.332,0.729-4.867c1.443-2.875,3.807-4.805,6.566-6.318c0.003,0.104,0.01,0.208,0.01,0.312
			c0.001,5.458,0,10.916,0.001,16.373c0,0.765,0.465,1.234,1.228,1.236c0.85,0.002,1.702-0.03,2.551,0.01
			c0.808,0.037,1.355-0.497,1.35-1.34c-0.022-3.21-0.009-6.421-0.008-9.631c0-0.093-0.024-0.189,0.031-0.3
			c2.872,2.111,6.081,3.01,9.612,2.597c3.554-0.415,6.487-2.035,8.747-4.808C39.922,19.156,39.968,12.468,36.229,7.738z
			 M30.953,21.947c-1.873,1.968-4.185,2.959-6.892,2.952c-2.36-0.006-4.439-0.823-6.208-2.401c-0.051-0.045-0.095-0.1-0.142-0.148
			l0,0l0,0c0,0,0,0,0-0.002l0,0c-0.005-1.596,0.006-3.191-0.009-4.787c-0.002-0.252,0.106-0.334,0.315-0.386
			c1.053-0.261,2.116-0.473,3.192-0.61c1.24-0.157,2.485-0.246,3.734-0.211c1.705,0.046,3.389,0.249,5.038,0.696
			c0.15,0.041,0.3,0.087,0.455,0.111c0.106,0.017,0.21,0.007,0.274-0.099c0.066-0.108,0.048-0.216-0.013-0.319
			c-0.081-0.133-0.213-0.202-0.346-0.266c-1.46-0.702-2.981-1.231-4.563-1.576c-1.383-0.301-2.779-0.512-4.195-0.587
			c-1.195-0.064-2.39-0.064-3.586-0.006c-0.167,0.008-0.304,0.001-0.303-0.237c0.007-1.656,0.002-3.312,0.005-4.97
			c0-0.017,0.005-0.034,0.008-0.051c4.634-4.273,12.013-2.945,14.789,2.662C34.181,15.09,33.56,19.209,30.953,21.947z"/>
	</g>
</g>
<g id="famifed" display="none">
	<g display="inline">
		<path d="M28.863,25.127c0.561-1.613,1.533-2.92,2.811-4.096c0.254-0.225-0.021-0.52-0.262-0.68
			c0.041-0.047,0.082-0.098,0.123-0.146c0.365-0.236,0.713-0.402,1.078-0.613c0.043-0.027-0.016-0.181-0.129-0.17
			c-0.43-0.009-0.83,0.095-1.244,0.245c-0.33,0.119-0.779,0.158-0.887,0.508c-0.072,0.186,0.184,0.277,0.287,0.428
			c-0.717,0.855-1.338,1.77-1.77,2.803c-0.227,0.52-0.271,1.041-0.451,1.559c-0.057,0.139-0.234,0.154-0.369,0.168
			c-0.488,0.109-0.975-0.008-1.402-0.24c0.215-0.133,0.537-0.07,0.701-0.266c0.104-0.1,0.131-0.307,0.074-0.438
			c-0.111-0.24-0.469-0.186-0.645-0.395c0.043-0.279,0.09-0.529,0.043-0.797c-0.014-0.135-0.195-0.164-0.314-0.221
			c-0.117-0.061-0.234-0.094-0.354-0.15c-0.488-0.162-1.016-0.252-1.527-0.139c-0.377,0.078-0.5,0.496-0.75,0.744
			c-0.367-0.059-0.6-0.4-0.891-0.602c-0.051-0.064-0.184-0.027-0.244,0.066c-0.037,0.072-0.051,0.164-0.07,0.234
			c-0.055,0.141-0.232,0.178-0.334,0.301c-0.021,0.023,0.006,0.066,0.01,0.111c0.191,0.367,0.422,0.688,0.701,1.025
			c0.148,0.145,0.271,0.271,0.42,0.395c0.025,0.043-0.016,0.092-0.037,0.115c-0.303,0.162-0.629,0.303-0.955,0.447
			c-0.461,0.176-0.895,0.412-1.326,0.635c-0.367,0.193-0.679,0.514-1.084,0.549c-0.271,0.023-0.51-0.137-0.767-0.227
			c-0.113-0.014-0.222,0.041-0.308,0.092c-0.234,0.182-0.539,0.299-0.607,0.553c-0.043,0.299,0.453,0.277,0.675,0.236
			c0.158-0.014,0.281-0.162,0.464-0.133c0.368,0.059,0.693,0.166,1.057,0.18c0.181,0.006,0.312-0.072,0.46-0.176
			c0.918-0.623,1.877-1.047,2.906-1.455c0.066-0.029,0.152-0.08,0.17-0.127c0.094-0.213,0.141-0.443,0.076-0.662
			c-0.088-0.242-0.309-0.428-0.463-0.664c-0.029-0.064-0.084-0.15,0.004-0.18c0.268-0.068,0.551,0.066,0.783-0.113
			c0.189-0.152,0.307-0.389,0.498-0.52c0.172-0.105,0.361-0.033,0.564-0.027c0.092,0.014,0.186,0.053,0.275,0.066
			c0.141,0.033,0.281,0.111,0.342,0.266c0.066,0.221,0.129,0.439,0.217,0.658c0.025,0.043,0.078,0.129,0.061,0.178
			c-0.168,0.172-0.488,0.133-0.602,0.369c-0.1,0.166-0.08,0.391,0.068,0.537c0.451,0.48,1.146,0.42,1.75,0.344
			c0.383-0.033,0.762-0.09,1.08-0.344C28.834,25.289,28.848,25.195,28.863,25.127z"/>
		<path d="M23.861,32.105c-0.227,0.248-0.311,0.596-0.584,0.822c-0.514,0.361-1.09,0.48-1.637,0.709
			c-0.154,0.059-0.33,0.119-0.478,0.223c-0.238,0.135-0.438-0.098-0.629-0.195c-0.415,0.15-0.648,0.604-0.96,0.924
			c-0.248-0.25-0.079-0.65,0.032-0.932c0.034-0.117,0.161-0.217,0.317-0.254c0.376-0.102,0.739-0.086,1.035-0.316
			c0.15-0.105,0.199-0.311,0.274-0.5c0.058-0.096,0.097-0.189,0.204-0.244c0.33-0.098,0.613-0.236,0.893-0.395
			c0.062-0.053,0.105-0.102,0.123-0.17c-0.01-0.34-0.279-0.609-0.242-0.951c0.041-0.301,0.154-0.559,0.266-0.84
			c0.312-0.82,0.783-1.631,0.664-2.504c-0.014-0.156-0.143-0.326-0.303-0.355c-0.119-0.037-0.279-0.09-0.34,0.004
			c-0.078,0.145,0.027,0.316,0.021,0.496c-0.01,0.16-0.07,0.299-0.121,0.441c-0.289,0.818-0.746,1.561-1.227,2.283
			c-0.054,0.412,0.357,0.715,0.523,1.061c-0.252,0.498-0.946,0.311-1.37,0.619c-0.151,0.104-0.04,0.344-0.023,0.523
			c0.003,0.045-0.063,0.049-0.085,0.074c-0.442,0.107-0.935,0.172-1.194,0.557c-0.419,0.65-0.168,1.443,0.312,2.012
			c0.101,0.127,0.317,0.266,0.462,0.117c0.296-0.252,0.418-0.67,0.734-0.924c0.133,0.215,0.384,0.51,0.64,0.33
			c0.299-0.209,0.602-0.371,0.926-0.535c0.305-0.162,0.637-0.238,0.965-0.355c0.109-0.057,0.217-0.133,0.322-0.211
			c0.209-0.197,0.301-0.434,0.414-0.693c0.09-0.256,0.205-0.516,0.158-0.781C23.951,32.121,23.904,32.082,23.861,32.105z"/>
		<path d="M26.318,30.693c-0.004-0.045-0.01-0.113,0.01-0.16c0.16-0.219,0.441-0.379,0.463-0.631
			c0.016-0.34-0.273-0.564-0.393-0.871c-0.064-0.221-0.127-0.418-0.168-0.641c-0.049-0.289-0.051-0.562,0.014-0.861
			c0.066-0.277,0.184-0.492,0.299-0.75c0.016-0.07-0.035-0.133-0.105-0.15c-0.451,0.018-0.877,0.326-0.998,0.744
			c-0.154,0.557,0.004,1.082,0.143,1.639c0.105,0.422,0.299,0.836,0.203,1.275c-0.037,0.115-0.141,0.215-0.221,0.312
			c-0.039,0.072-0.035,0.139-0.051,0.207c0.014,0.18,0.119,0.33,0.203,0.504c0.084,0.195,0.172,0.416,0.232,0.613
			c0.119,0.307,0.256,0.59,0.262,0.906c0,0.248-0.027,0.477-0.074,0.707c-0.094,0.484-0.168,0.943-0.328,1.41
			c0.117,0.057,0.24-0.066,0.326-0.117c0.232-0.203,0.391-0.467,0.48-0.746c0.117-0.463,0.234-0.926,0.26-1.426
			c0.021-0.252,0.004-0.477-0.061-0.695C26.729,31.518,26.469,31.131,26.318,30.693z"/>
		<path d="M32.312,28.061c-0.049-0.041-0.133,0.035-0.15,0.084c-0.111,0.281-0.111,0.551-0.223,0.832
			c-0.018,0.049-0.061,0.074-0.082,0.076c-0.414-0.078-0.67-0.395-0.902-0.736c-0.051-0.062-0.123-0.104-0.168-0.1
			c-0.182-0.006-0.338,0.01-0.516,0.068c-0.33-0.4-0.623-0.92-1.156-1.076c-0.324-0.084-0.561,0.322-0.719,0.584
			c-0.061,0.072-0.123,0.146-0.139,0.24c-0.033,0.137-0.111,0.256-0.1,0.414c0.004,0.021-0.043,0.025-0.039,0.049
			c0,0.273,0.002,0.543,0.092,0.785c0.029,0.088-0.002,0.248,0.109,0.238c0.066-0.006,0.131-0.055,0.172-0.127
			c0.104-0.35,0.16-0.738,0.432-1.012c0.062-0.051,0.17-0.127,0.242-0.066c0.219,0.184,0.252,0.545,0.533,0.654
			c0.162,0.055,0.391-0.191,0.586-0.027c0.596,0.604,1.326,1.195,2.197,1.053c0.066-0.006,0.178-0.037,0.191-0.131
			c0.037-0.342-0.014-0.678-0.111-1.008C32.494,28.588,32.535,28.27,32.312,28.061z"/>
		<path d="M31.43,24.426c-0.221,0.336-0.275,0.748-0.354,1.141c-0.051,0.207-0.049,0.41,0.008,0.609
			c0.131,0.465,0.217,0.91,0.523,1.314c0.076,0.105,0.223,0.229,0.281,0.111c0.133-0.283,0.104-0.623,0.238-0.906
			c0.076-0.141,0.084-0.322,0.047-0.479c-0.211-0.592-0.484-1.135-0.561-1.738C31.607,24.389,31.469,24.355,31.43,24.426z"/>
		<path d="M37.678,22.633c-0.773,0.205-1.5,0.428-2.221,0.738c-0.086,0.055-0.1,0.145-0.139,0.24
			c-0.102,0.369-0.232,0.699-0.314,1.068c-0.051,0.186-0.086,0.387-0.016,0.59c0.092,0.264,0.223,0.479,0.379,0.713
			c0.025,0.043-0.018,0.068-0.014,0.092c-0.1,0.145-0.225,0.27-0.326,0.414c-0.062,0.074-0.074,0.186,0.002,0.293
			c0.428,0.484,0.613,1.059,0.908,1.574c0.352,0.648,0.529,1.381,0.902,2.027c0.029,0.064,0.215,0.117,0.205,0.004
			c0.061-1.363-0.387-2.613-1.078-3.777c-0.105-0.172,0.039-0.32,0.143-0.441c0.021-0.025-0.008-0.092-0.014-0.135
			c-0.406-0.758-0.051-1.627,0.271-2.334c0.443-0.105,0.906-0.012,1.344-0.162c0.527-0.205,1.135-0.484,1.289-1.064
			C38.545,22.445,38.123,22.527,37.678,22.633z"/>
		<path d="M37.664,21.684c0.09-0.008,0.205,0.006,0.219-0.064c0.094-0.234-0.25-0.271-0.43-0.277
			c-0.549-0.043-0.924-0.486-1.383-0.787c-0.381-0.215-0.785-0.178-1.178-0.281c0.268-0.545,0.371-1.164,0.342-1.773
			c-0.021-0.496-0.334-0.966-0.824-1.15c-0.234-0.069-0.465-0.118-0.686-0.075c-0.518,0.045-0.994,0.29-1.51,0.358
			c-0.088,0.03-0.197,0.062-0.281,0.138c-0.188,0.197-0.477,0.517-0.25,0.769c0.148,0.146,0.369,0.081,0.572,0.063
			c0.467-0.087,0.852-0.346,1.268-0.519c0.307-0.116,0.658,0.011,0.902,0.238c0.102,0.104,0.137,0.26,0.146,0.395
			c0.018,0.428-0.035,0.863-0.203,1.287c-0.076,0.164-0.275,0.203-0.426,0.309c-0.041,0.047-0.146,0.148-0.098,0.168
			c0.326,0.107,0.65,0.139,0.979,0.32c0.43,0.234,0.688,0.619,1.131,0.762C36.514,21.762,37.098,21.711,37.664,21.684z"/>
		<polygon points="13.6,11.081 15.769,9.869 15.68,11.421 18.094,10.002 18.293,8.459 21.267,6.799 21.619,4.997 18.527,6.65 
			18.79,4.621 15.988,6.066 15.873,8.07 13.567,9.303 		"/>
		<path d="M15.235,12.399c-0.681,0.471-1.197,1.334-1.189,1.924c0.009,0.589,0.48,0.685,1.091,0.213
			c0.654-0.468,1.267-1.326,1.328-1.917C16.525,12.028,15.957,11.928,15.235,12.399z"/>
		<path d="M19.896,9.902c-0.914,0.46-1.7,1.316-1.795,1.91c-0.097,0.593,0.482,0.702,1.331,0.242c0.894-0.455,1.78-1.306,1.94-1.902
			C21.533,9.556,20.854,9.443,19.896,9.902z"/>
		<polygon points="11.462,12.306 10.991,7.021 9.163,8.539 10.049,13.798 		"/>
		<polygon points="9.359,15.453 10.986,20.707 11.57,19.239 10.499,13.968 		"/>
		<polygon points="11.789,12.824 12.417,18.116 13.723,16.682 13.614,11.371 		"/>
		<polygon points="6.276,26.93 8.944,28.383 8.949,26.09 6.337,25.646 		"/>
		<path d="M4.284,27.59c-0.449,0.229-0.638,0.768-0.416,1.209c0.226,0.449,0.779,0.643,1.231,0.416
			c0.45-0.227,0.629-0.762,0.403-1.211C5.275,27.553,4.736,27.365,4.284,27.59z"/>
		<path d="M1.42,25.809c-0.375,0.189-0.525,0.666-0.342,1.033c0.192,0.381,0.665,0.545,1.039,0.357s0.543-0.672,0.355-1.047
			C2.283,25.777,1.794,25.621,1.42,25.809z"/>
		<polygon points="8.156,24.848 10.744,24.506 10.75,22.215 8.215,23.566 		"/>
		<path d="M17.671,21.312c-0.261-1.974-0.524-4.74-0.587-6.291c0,0-0.113,2.992-0.036,4.471c0.079,1.505,0.099,3.681,0.362,4.9
			c0.265,1.223,0.849,1.439,1.069,1.402C18.7,25.76,17.933,23.285,17.671,21.312z"/>
	</g>
</g>
<g id="inami" display="none">
	<g display="inline">
		<path d="M19.677,16.162c0.906,0.078,1.844,0.175,2.81,0.289c1.457-1.237,2.543-2.67,3.165-4.167
			c-2.178-0.465-5.442-0.987-9.218-1.021c0.474,0.288,0.919,0.64,1.323,1.054C18.792,13.373,19.462,14.732,19.677,16.162"/>
		<path d="M1.109,18.31c-0.001,0.013-0.003,0.025-0.004,0.038c-0.003,0.027-0.005,0.054-0.008,0.079
			c-0.001,0.016-0.002,0.03-0.003,0.047c-0.002,0.023-0.003,0.047-0.004,0.07c0,0.016-0.001,0.032-0.001,0.048
			c-0.001,0.022-0.001,0.045-0.001,0.067c0,0.013,0,0.026,0,0.039c0,0.103,0.006,0.204,0.018,0.303c0,0.007,0.001,0.013,0.002,0.02
			c0.006,0.048,0.014,0.096,0.022,0.143c0.006,0.036,0.015,0.072,0.023,0.108c0.002,0.011,0.004,0.021,0.006,0.032
			c0.01,0.042,0.021,0.084,0.034,0.125c0.001,0.004,0.002,0.008,0.003,0.012c0.176,0.593,0.57,1.146,1.207,1.714
			c0.537-1.54,2.128-2.789,4.207-3.681c-0.001-0.082-0.001-0.164,0-0.247c0.03-1.74,0.723-3.469,1.903-4.754
			c-0.881,0.288-1.727,0.623-2.52,1.002c-2.804,1.343-4.624,3.105-4.867,4.715C1.119,18.229,1.113,18.27,1.109,18.31"/>
		<path d="M8.939,12.764c-1.128,1.2-1.79,2.83-1.819,4.473c0,0.01,0,0.02,0,0.029c-0.001,0.09,0,0.18,0.002,0.269
			c0.002,0.091,0.007,0.181,0.014,0.271c0.104,1.439,0.699,2.773,1.708,3.804c1.12,1.144,2.621,1.775,4.224,1.78
			c3.342,0.009,6.11-2.741,6.169-6.129l0,0c0.003-0.208-0.004-0.416-0.021-0.623c-0.008-0.087-0.017-0.173-0.027-0.259
			c-0.011-0.087-0.023-0.174-0.039-0.261c-0.217-1.279-0.829-2.492-1.76-3.441c-0.607-0.62-1.311-1.093-2.069-1.4
			c-0.219-0.089-0.444-0.165-0.672-0.226c-0.33-0.089-0.667-0.147-1.008-0.174c-0.143-0.011-0.287-0.017-0.431-0.018
			c-0.72-0.001-1.423,0.135-2.085,0.399c-0.317,0.126-0.625,0.282-0.92,0.465C10,11.85,9.802,11.989,9.611,12.143
			C9.376,12.33,9.151,12.537,8.939,12.764"/>
		<path d="M39,10.183c0-0.185-0.006-0.365-0.018-0.543c-0.592,0.553-1.239,1.178-1.923,1.838c-2.83,2.738-6.706,6.488-11.146,9.311
			c-2.422,1.541-4.821,2.681-7.13,3.389c-2.688,0.823-5.357,1.097-7.933,0.809c-2.503-0.279-5.925-1.289-8.153-2.93
			c-0.11-0.081-0.218-0.164-0.323-0.248c0-0.001,0-0.001,0-0.001c-0.015-0.012-0.029-0.023-0.043-0.035
			c-0.016-0.014-0.032-0.026-0.049-0.04c-0.006-0.005-0.013-0.011-0.02-0.016c-0.025-0.021-0.05-0.042-0.076-0.064
			c0,0,0-0.001,0-0.001C1.749,21.278,1.31,20.83,1,20.278v0.002c0.028,1.24,0.246,2.785,0.956,4.296
			c1.235,2.627,3.559,4.381,6.906,5.213c2.308,0.574,4.821,0.715,7.469,0.419c2.442-0.274,4.946-0.911,7.442-1.894
			c4.664-1.836,8.923-4.738,11.683-7.962C36.66,18.945,39,13.96,39,10.183"/>
	</g>
</g>
<g id="onva" display="none">
	<g display="inline">
		<path d="M28.517,24.776c0.158-0.431,0.265-0.858,0.406-1.307c0.02-0.077,0.096-0.341,0.163-0.562
			c0.038-0.125,0.214-0.613,0.278-0.771c1.419-3.418,4.427-6.003,8.058-6.856c1.1-0.258,1.781-1.358,1.523-2.457
			s-1.358-1.78-2.457-1.521c-3.002,0.704-5.689,2.285-7.764,4.464c-0.849-2.704-2.507-5.114-4.745-6.861l-0.134-0.096
			c-2.4-1.864-5.41-2.979-8.677-2.979C7.356,5.831,1,12.187,1,19.999s6.356,14.169,14.169,14.169c6.067,0,11.253-3.834,13.27-9.205
			L28.517,24.776z M15.169,30.081c-5.56,0-10.082-4.522-10.082-10.082c0-5.559,4.522-10.081,10.082-10.081
			c2.439,0,4.68,0.872,6.426,2.319v-0.002c1.729,1.397,2.913,3.275,3.423,5.451c0.436,1.85,0.331,3.763-0.292,5.546h-0.01
			C23.365,27.209,19.598,30.081,15.169,30.081z"/>
	</g>
</g>
<g id="sfpss" display="none">
	<path display="inline" d="M11.198,25.526l-0.08-1.064c0.13-10.021,7.31-15.072,7.31-15.072C26.107,3.194,39,1.79,39,1.79
		C16.571,9.601,11.198,25.526,11.198,25.526L11.198,25.526z M1,38.21l1.355-0.453c19.879-7.453,26.092-22.93,26.092-22.93
		C29.465,35.95,1,38.21,1,38.21L1,38.21z"/>
</g>
</svg>
